<svg xmlns="http://www.w3.org/2000/svg" xmlns:xlink="http://www.w3.org/1999/xlink" viewBox="0 0 108 33"><defs><style>.cls-1{isolation:isolate;}.cls-2{fill:url(#linear-gradient);}.cls-10,.cls-11,.cls-12,.cls-13,.cls-14,.cls-15,.cls-16,.cls-17,.cls-18,.cls-19,.cls-20,.cls-21,.cls-22,.cls-23,.cls-24,.cls-25,.cls-3,.cls-4,.cls-5,.cls-6,.cls-7,.cls-8,.cls-9{mix-blend-mode:soft-light;}.cls-3{fill:url(#linear-gradient-2);}.cls-4{fill:url(#linear-gradient-3);}.cls-5{fill:url(#linear-gradient-4);}.cls-6{fill:url(#linear-gradient-5);}.cls-7{fill:url(#linear-gradient-6);}.cls-8{fill:url(#linear-gradient-7);}.cls-9{fill:url(#linear-gradient-8);}.cls-10{fill:url(#linear-gradient-9);}.cls-11{fill:url(#linear-gradient-10);}.cls-12{fill:url(#linear-gradient-11);}.cls-13{fill:url(#linear-gradient-12);}.cls-14{fill:url(#linear-gradient-13);}.cls-15{fill:url(#linear-gradient-14);}.cls-16{fill:url(#linear-gradient-15);}.cls-17{fill:url(#linear-gradient-16);}.cls-18{fill:url(#linear-gradient-17);}.cls-19{fill:url(#linear-gradient-18);}.cls-20{fill:url(#linear-gradient-19);}.cls-21{fill:url(#linear-gradient-20);}.cls-22{fill:url(#linear-gradient-21);}.cls-23{fill:url(#linear-gradient-22);}.cls-24{fill:url(#linear-gradient-23);}.cls-25{fill:url(#linear-gradient-24);}</style><linearGradient id="linear-gradient" x1="108" y1="16.5" x2="0" y2="16.5" gradientUnits="userSpaceOnUse"><stop offset="0" stop-color="#fff"/><stop offset="0.17" stop-color="#c6d1f4"/><stop offset="0.4" stop-color="#809ae6"/><stop offset="0.6" stop-color="#496edb"/><stop offset="0.78" stop-color="#214ed3"/><stop offset="0.92" stop-color="#093ace"/><stop offset="1" stop-color="#03c"/></linearGradient><linearGradient id="linear-gradient-2" x1="17.55" y1="-11.15" x2="33.88" y2="5.18" gradientUnits="userSpaceOnUse"><stop offset="0" stop-color="#d0d0d0"/><stop offset="1"/></linearGradient><linearGradient id="linear-gradient-3" x1="37.71" y1="10.47" x2="37.71" y2="-17.74" xlink:href="#linear-gradient-2"/><linearGradient id="linear-gradient-4" x1="61.36" y1="5.63" x2="61.36" y2="-17.74" xlink:href="#linear-gradient-2"/><linearGradient id="linear-gradient-5" x1="50.21" y1="-11.15" x2="66.54" y2="5.18" xlink:href="#linear-gradient-2"/><linearGradient id="linear-gradient-6" x1="6.18" y1="10.47" x2="6.18" y2="-17.74" xlink:href="#linear-gradient-2"/><linearGradient id="linear-gradient-7" x1="-0.92" y1="2.56" x2="9.68" y2="13.16" xlink:href="#linear-gradient-2"/><linearGradient id="linear-gradient-8" x1="45.03" y1="50.36" x2="45.03" y2="27" xlink:href="#linear-gradient-2"/><linearGradient id="linear-gradient-9" x1="45.03" y1="33.84" x2="45.03" y2="10.47" xlink:href="#linear-gradient-2"/><linearGradient id="linear-gradient-10" x1="36.86" y1="13.99" x2="53.19" y2="30.32" xlink:href="#linear-gradient-2"/><linearGradient id="linear-gradient-11" x1="53.19" y1="38.68" x2="53.19" y2="10.47" xlink:href="#linear-gradient-2"/><linearGradient id="linear-gradient-12" x1="28.7" y1="8.66" x2="28.7" y2="36.87" xlink:href="#linear-gradient-2"/><linearGradient id="linear-gradient-13" x1="66.16" y1="50.36" x2="66.16" y2="11.23" xlink:href="#linear-gradient-2"/><linearGradient id="linear-gradient-14" x1="76.13" y1="33.84" x2="76.13" y2="10.47" xlink:href="#linear-gradient-2"/><linearGradient id="linear-gradient-15" x1="83.86" y1="27.66" x2="94.44" y2="38.25" xlink:href="#linear-gradient-2"/><linearGradient id="linear-gradient-16" x1="20.53" y1="38.68" x2="20.53" y2="10.47" xlink:href="#linear-gradient-2"/><linearGradient id="linear-gradient-17" x1="19.87" y1="26.33" x2="30.44" y2="36.9" xlink:href="#linear-gradient-2"/><linearGradient id="linear-gradient-18" x1="16.27" y1="24.58" x2="16.27" y2="-3.63" xlink:href="#linear-gradient-2"/><linearGradient id="linear-gradient-19" x1="9.07" y1="5.63" x2="9.07" y2="33.84" xlink:href="#linear-gradient-2"/><linearGradient id="linear-gradient-20" x1="6.41" y1="37" x2="6.41" y2="13.63" xlink:href="#linear-gradient-2"/><linearGradient id="linear-gradient-21" x1="-13.72" y1="-1.23" x2="12.83" y2="25.32" xlink:href="#linear-gradient-2"/><linearGradient id="linear-gradient-22" x1="45.94" y1="52.29" x2="45.94" y2="16.1" xlink:href="#linear-gradient-2"/><linearGradient id="linear-gradient-23" x1="90.45" y1="52.29" x2="90.45" y2="16.1" xlink:href="#linear-gradient-2"/><linearGradient id="linear-gradient-24" x1="99.87" y1="23.35" x2="116.28" y2="39.76" xlink:href="#linear-gradient-2"/></defs><title>bg</title><g class="cls-1"><g id="Layer_2" data-name="Layer 2"><g id="Layer_2-2" data-name="Layer 2"><rect class="cls-2" width="108" height="33"/><polygon class="cls-3" points="20.82 0 28.7 5.63 36.57 0 20.82 0"/><polygon class="cls-4" points="30.39 0 45.03 10.47 45.03 0 30.39 0"/><polygon class="cls-5" points="53.48 0 61.35 5.63 69.23 0 53.48 0"/><polygon class="cls-6" points="53.48 0 61.35 5.63 69.23 0 53.48 0"/><polygon class="cls-7" points="0 0 0 1.62 12.37 10.47 12.37 0 0 0"/><polygon class="cls-8" points="3.91 0 0 2.8 0 19.32 12.37 10.47 12.37 0 3.91 0"/><polygon class="cls-9" points="53.42 33 45.02 27 36.63 33 53.42 33"/><polygon class="cls-10" points="46.2 33 61.35 22.16 45.02 10.47 28.7 22.16 43.85 33 46.2 33"/><polygon class="cls-11" points="46.2 33 61.35 22.16 45.02 10.47 28.7 22.16 43.85 33 46.2 33"/><polygon class="cls-12" points="61.35 33 61.35 22.16 45.02 10.47 45.02 27 53.42 33 61.35 33"/><polygon class="cls-13" points="36.86 33 36.86 20.35 20.53 8.66 20.53 25.19 31.45 33 36.86 33"/><polygon class="cls-14" points="90.91 33 90.91 27.07 68.76 11.23 41.42 30.8 44.5 33 90.91 33"/><polygon class="cls-15" points="78.86 33 90.91 24.38 90.91 19.93 77.69 10.47 61.35 22.16 76.51 33 78.86 33"/><polygon class="cls-16" points="90.91 33 90.91 24.38 78.86 33 90.91 33"/><polygon class="cls-17" points="28.7 33 28.7 22.16 12.37 10.47 12.37 27 20.76 33 28.7 33"/><polygon class="cls-18" points="28.7 33 28.7 22.16 13.54 33 28.7 33"/><polygon class="cls-19" points="8.11 0 8.11 12.89 24.44 24.58 24.44 8.05 13.18 0 8.11 0"/><polygon class="cls-20" points="15.68 15.09 2.46 5.63 2.46 22.16 15.68 31.62 15.68 15.09"/><polygon class="cls-21" points="2.08 33 12.83 25.32 0 16.14 0 33 2.08 33"/><polygon class="cls-22" points="0 0 0 31.76 22.47 15.69 0.54 0 0 0"/><polygon class="cls-23" points="69.56 33 45.94 16.1 22.31 33 69.56 33"/><polygon class="cls-24" points="108 33 108 24.31 96.52 16.1 72.9 33 108 33"/><polygon class="cls-25" points="108 33 108 18.49 96.52 26.7 96.52 33 108 33"/></g></g></g></svg>