<svg xmlns="http://www.w3.org/2000/svg" viewBox="0 0 700 300"><defs><style>.cls-1{fill:none;}.cls-2{fill:#03f;}</style></defs><title>logo</title><g id="Layer_2" data-name="Layer 2"><g id="logo"><rect id="bg" class="cls-1" width="700" height="300"/><path id="lines" d="M569,136.28c1.61-1.74,3.26-3.55,5-5.44s3.37-3.75,5-5.61,3.11-3.61,4.53-5.27,2.65-3.12,3.67-4.36h19.4q-5.8,6.68-11.34,12.73t-12.09,12.51a74,74,0,0,1,6.78,7.07q3.51,4.11,6.79,8.5t6,8.78q2.73,4.38,4.59,8H588.59q-1.74-2.85-4-6.31c-1.49-2.3-3.07-4.61-4.75-6.91s-3.44-4.52-5.3-6.64A44.52,44.52,0,0,0,569,148v25.24H552.72V90.86L569,88.23Zm-22.88,71.07h0V115.6H529.84v91.75ZM531.09,106a10.4,10.4,0,0,0,13.69,0,10,10,0,0,0,0-14.12,10.37,10.37,0,0,0-13.69,0,10,10,0,0,0,0,14.12Zm-43.84-4.76,16.31-2.63v17h19.6v13.58h-19.6v20.25a16,16,0,0,0,1.81,8.21q1.8,3.08,7.28,3.07a31,31,0,0,0,5.42-.49,28.33,28.33,0,0,0,5.09-1.37l2.3,12.7a46.21,46.21,0,0,1-6.57,2.08,38.52,38.52,0,0,1-8.87.88A29.3,29.3,0,0,1,499,172.7a17.31,17.31,0,0,1-7-5,18.7,18.7,0,0,1-3.66-7.82,45.87,45.87,0,0,1-1-10.19ZM456.7,114.07a37.88,37.88,0,0,1,12,1.64,18.79,18.79,0,0,1,7.72,4.71,17.28,17.28,0,0,1,4.11,7.44,36.88,36.88,0,0,1,1.2,9.75v33.94c-2.34.51-5.58,1.11-9.74,1.81a94.06,94.06,0,0,1-15.11,1,47.73,47.73,0,0,1-10.13-1,22,22,0,0,1-7.83-3.23,14.76,14.76,0,0,1-5-5.86,20.32,20.32,0,0,1-1.75-8.87,16.78,16.78,0,0,1,2-8.53,15.54,15.54,0,0,1,5.42-5.59,24.59,24.59,0,0,1,7.77-3,43.66,43.66,0,0,1,9.09-.93,52.25,52.25,0,0,1,5.64.27,26.16,26.16,0,0,1,4,.71v-1.53a9.07,9.07,0,0,0-2.51-6.68q-2.52-2.52-8.76-2.52a55.88,55.88,0,0,0-8.21.61,35,35,0,0,0-7,1.69l-2.08-13.13c.95-.3,2.13-.61,3.56-.94s3-.62,4.65-.87,3.45-.48,5.31-.66S454.8,114.07,456.7,114.07ZM458,161.81c1.61,0,3.14,0,4.6-.11s2.63-.19,3.5-.33V149a26.93,26.93,0,0,0-2.95-.44,32.07,32.07,0,0,0-3.61-.22,32.77,32.77,0,0,0-4.33.27,11.52,11.52,0,0,0-3.56,1,6.2,6.2,0,0,0-2.41,2.08,5.84,5.84,0,0,0-.87,3.29c0,2.55.85,4.32,2.57,5.31A14.26,14.26,0,0,0,458,161.81Zm-78.17-19.17q0-7.87-2-11.16t-6.95-3.29c-1,0-2.08.06-3.18.17s-2.15.23-3.17.38v44.45H348.19V117.57c1.39-.36,3-.75,4.88-1.15s3.83-.76,5.91-1.09,4.21-.59,6.4-.77,4.35-.27,6.46-.27A27.35,27.35,0,0,1,382,115.87a23,23,0,0,1,6.41,3.78,30.43,30.43,0,0,1,16.42-5.36,28.87,28.87,0,0,1,11.33,1.91,17.2,17.2,0,0,1,7.07,5.42,20.6,20.6,0,0,1,3.61,8.32,54.31,54.31,0,0,1,1,10.73v32.52H411.48V142.64q0-7.87-2-11.16c-1.35-2.19-3.66-3.29-6.95-3.29a14.7,14.7,0,0,0-3.67.66,14.19,14.19,0,0,0-3.88,1.64,25.2,25.2,0,0,1,1,5.31q.22,2.79.22,6v31.42H379.84Zm-91.21,2.19A35.22,35.22,0,0,1,291,131.42a28.75,28.75,0,0,1,6.18-9.58A25.73,25.73,0,0,1,306,116a27.45,27.45,0,0,1,10.23-2q12.27,0,19.38,7.5t7.12,22.06c0,1,0,2-.11,3.12s-.15,2.14-.22,3h-37a10.86,10.86,0,0,0,4.71,8q4.17,3,11.17,3a46.89,46.89,0,0,0,8.81-.82,33,33,0,0,0,7.07-2l2.19,13.25a22.73,22.73,0,0,1-3.51,1.32,48.14,48.14,0,0,1-4.87,1.15c-1.79.32-3.71.6-5.75.82a57.22,57.22,0,0,1-6.13.33,36.34,36.34,0,0,1-13.52-2.3,26.42,26.42,0,0,1-9.53-6.3,24.86,24.86,0,0,1-5.58-9.47A37.36,37.36,0,0,1,288.63,144.83ZM327,138.59a16.87,16.87,0,0,0-.71-4.05,9.83,9.83,0,0,0-5-6,10.34,10.34,0,0,0-4.77-1,11,11,0,0,0-4.71.93,9.8,9.8,0,0,0-3.28,2.46,11,11,0,0,0-2,3.56,23.93,23.93,0,0,0-1,4.1Zm-76-37.33,16.31-2.63v17h19.6v13.58h-19.6v20.25a16,16,0,0,0,1.81,8.21q1.8,3.08,7.28,3.07a31,31,0,0,0,5.42-.49,28.33,28.33,0,0,0,5.09-1.37l2.3,12.7a46.21,46.21,0,0,1-6.57,2.08,38.46,38.46,0,0,1-8.87.88,29.3,29.3,0,0,1-11.06-1.81,17.21,17.21,0,0,1-7-5,18.59,18.59,0,0,1-3.67-7.82,45.87,45.87,0,0,1-1-10.19Zm-29.45,60.22c3,0,5.1-.29,6.35-.88a3.37,3.37,0,0,0,1.86-3.39c0-1.32-.81-2.47-2.41-3.45a45.32,45.32,0,0,0-7.34-3.34,73.72,73.72,0,0,1-6.95-3,20.24,20.24,0,0,1-5.31-3.67,14.75,14.75,0,0,1-3.39-5.09,18.68,18.68,0,0,1-1.21-7.11,15.4,15.4,0,0,1,6-12.81q6-4.71,16.54-4.71a53,53,0,0,1,10.07.93,47.69,47.69,0,0,1,7.66,2l-2.84,12.71a58.84,58.84,0,0,0-6.19-1.76,33.74,33.74,0,0,0-7.5-.76q-7.66,0-7.66,4.27a4.4,4.4,0,0,0,.33,1.75,3.68,3.68,0,0,0,1.31,1.48,19.13,19.13,0,0,0,2.68,1.54q1.69.83,4.33,1.82a66.31,66.31,0,0,1,8.87,3.92,21.08,21.08,0,0,1,5.52,4.17,12.91,12.91,0,0,1,2.85,5,22,22,0,0,1,.82,6.33q0,8.53-6.4,12.9t-18.12,4.37a51.92,51.92,0,0,1-12.76-1.32,50,50,0,0,1-7.06-2.19L204.33,158a52.85,52.85,0,0,0,8.54,2.58A41.54,41.54,0,0,0,221.52,161.48Zm-38.68,45.87V170.63q5.22-11.61,9.75-23.82Q198,132.25,202.9,115.6H186c-.73,2.85-1.56,5.93-2.47,9.25s-1.87,6.68-2.86,10.08-2,6.69-3,9.9-2,6.14-3,8.76q-1.54-3.93-3.25-8.76t-3.35-9.9q-1.65-5.1-3.13-10.08c-1-3.32-1.86-6.4-2.59-9.25h-17.3a304.56,304.56,0,0,0,10.52,30.6c3.72,9.09,7.19,17.17,10.92,24.47v36.68h16.31Zm-64.79-47.19a24.74,24.74,0,0,0,6-.6,11.09,11.09,0,0,0,3.77-1.64,5.45,5.45,0,0,0,2-2.47,8.61,8.61,0,0,0,.55-3.17,7.36,7.36,0,0,0-3.5-6.19q-3.51-2.46-12-5.31c-2.48-.87-5-1.88-7.44-3a27.29,27.29,0,0,1-6.68-4.27,20.31,20.31,0,0,1-4.82-6.24A19.54,19.54,0,0,1,94,118.34a22.13,22.13,0,0,1,2-9.47,20.28,20.28,0,0,1,5.59-7.17,25.48,25.48,0,0,1,8.75-4.55,39.32,39.32,0,0,1,11.61-1.59,46.59,46.59,0,0,1,22.45,5.26l-4.93,13.47a46.36,46.36,0,0,0-7.06-2.9,30.59,30.59,0,0,0-9.36-1.26q-6.14,0-8.82,1.69a5.74,5.74,0,0,0-2.68,5.2,6.07,6.07,0,0,0,1,3.51,9.61,9.61,0,0,0,2.8,2.57,24.08,24.08,0,0,0,4.16,2.08q2.35.93,5.2,1.92,5.91,2.19,10.29,4.32a27.74,27.74,0,0,1,7.28,5,18.18,18.18,0,0,1,4.33,6.68,27.09,27.09,0,0,1,1.42,9.31q0,10.62-7.45,16.48t-22.44,5.86a62.33,62.33,0,0,1-9.09-.61,59.21,59.21,0,0,1-7.17-1.47,41.81,41.81,0,0,1-5.37-1.87,38,38,0,0,1-3.77-1.86l4.81-13.57a41.5,41.5,0,0,0,20.59,4.81Z"/><path id="systematik" class="cls-2" d="M293.07,207.35H199.16V191h93.91ZM513.52,191H419.61v16.31h93.91ZM403.3,191H309.38v16.31H403.3Z"/></g></g></svg>