<svg xmlns="http://www.w3.org/2000/svg" viewBox="0 0 595 315"><defs><style>.cls-1{fill:#999;}.cls-2{fill:#f5f5f5;}.cls-3{fill:#03f;}.cls-4{fill:#e8e8e8;}.cls-5{fill:#202020;}.cls-6{fill:none;}.cls-7{fill:gray;}</style></defs><title>screens</title><g id="Layer_2" data-name="Layer 2"><g id="Layer_1-2" data-name="Layer 1"><g id="Screens"><g id="pc"><rect class="cls-1" x="32.5" width="470" height="300" rx="10" ry="10"/><rect class="cls-2" x="52.5" y="20" width="430" height="260"/><rect class="cls-3" x="132.5" y="55.71" width="270" height="224.29"/><rect class="cls-2" x="142.5" y="165.71" width="250" height="114.29"/><rect class="cls-2" x="142.5" y="65.71" width="250" height="90"/><rect class="cls-4" x="142.5" y="165.71" width="83.33" height="114.29"/><rect class="cls-4" x="309.17" y="65.71" width="83.33" height="90"/><rect class="cls-5" x="142.5" y="140.71" width="166.67" height="15"/><rect class="cls-5" x="132.5" y="265" width="270" height="15"/><rect id="bg" class="cls-6" x="142.5" y="20" width="83.33" height="35.71"/><path id="lines" d="M210.24,36.22l.59-.64.6-.67.54-.63.43-.52h2.31c-.46.53-.91,1-1.35,1.52s-.92,1-1.44,1.49a8.24,8.24,0,0,1,.81.84c.28.33.55.66.81,1s.5.7.72,1,.4.67.54,1h-2.23l-.47-.75c-.18-.28-.37-.55-.57-.83s-.41-.53-.63-.79a5.61,5.61,0,0,0-.66-.64v3H208.3v-9.8l1.94-.32Zm-2.72,8.46h0V33.76h-1.94V44.68Zm-1.79-12.06a1.21,1.21,0,0,0,1.62,0,1.18,1.18,0,0,0,0-1.68,1.21,1.21,0,0,0-1.62,0,1.18,1.18,0,0,0,0,1.68Zm-5.22-.57,1.94-.31v2h2.33v1.62h-2.33v2.41a2,2,0,0,0,.21,1,.94.94,0,0,0,.87.36,3.55,3.55,0,0,0,.64-.06,3.18,3.18,0,0,0,.61-.16l.27,1.51a4.77,4.77,0,0,1-.78.25,4.5,4.5,0,0,1-1.05.1,3.58,3.58,0,0,1-1.32-.21,1.92,1.92,0,0,1-.83-.6,2.23,2.23,0,0,1-.44-.93,5.7,5.7,0,0,1-.12-1.21Zm-3.64,1.53a4.21,4.21,0,0,1,1.43.2,2.17,2.17,0,0,1,.92.56,2.05,2.05,0,0,1,.49.88,4.24,4.24,0,0,1,.14,1.16v4c-.27.06-.66.14-1.16.22a11.41,11.41,0,0,1-1.8.12,5.54,5.54,0,0,1-1.2-.12,2.43,2.43,0,0,1-.93-.38,1.77,1.77,0,0,1-.6-.7,2.37,2.37,0,0,1-.21-1.05,2,2,0,0,1,.24-1,1.79,1.79,0,0,1,.65-.66,2.6,2.6,0,0,1,.92-.36,4.83,4.83,0,0,1,1.08-.11,6.59,6.59,0,0,1,.67,0,3.39,3.39,0,0,1,.48.08v-.18a1.06,1.06,0,0,0-.3-.79,1.45,1.45,0,0,0-1-.3,6.37,6.37,0,0,0-1,.07,4,4,0,0,0-.83.2l-.25-1.56.42-.12.56-.1.63-.08C196.42,33.59,196.64,33.58,196.87,33.58Zm.16,5.68h.54a3.32,3.32,0,0,0,.42,0V37.74a2.06,2.06,0,0,0-.35-.05l-.43,0a4.28,4.28,0,0,0-.52,0,1.29,1.29,0,0,0-.42.13.76.76,0,0,0-.29.24.71.71,0,0,0-.1.39.68.68,0,0,0,.3.64A1.83,1.83,0,0,0,197,39.26ZM187.72,37a2.7,2.7,0,0,0-.24-1.33.9.9,0,0,0-.83-.39l-.38,0-.38,0v5.29H184V34l.58-.14.71-.13c.24,0,.5-.07.76-.09s.51,0,.77,0a3.37,3.37,0,0,1,1.2.18,3,3,0,0,1,.77.45,3.11,3.11,0,0,1,.95-.46,3.18,3.18,0,0,1,1-.17,3.46,3.46,0,0,1,1.35.22,2.11,2.11,0,0,1,.84.65,2.47,2.47,0,0,1,.43,1,6.26,6.26,0,0,1,.12,1.28v3.87h-1.94V37a2.58,2.58,0,0,0-.25-1.33.88.88,0,0,0-.82-.39,1.88,1.88,0,0,0-.44.08,1.82,1.82,0,0,0-.46.19,2.68,2.68,0,0,1,.11.64c0,.22,0,.46,0,.71v3.74h-1.94Zm-10.86.26a4.07,4.07,0,0,1,.28-1.59,3.45,3.45,0,0,1,.74-1.15,3.09,3.09,0,0,1,1.05-.69,3.39,3.39,0,0,1,1.22-.23,3,3,0,0,1,2.3.89,3.67,3.67,0,0,1,.85,2.63c0,.11,0,.24,0,.37s0,.25,0,.36h-4.4a1.27,1.27,0,0,0,.56,1,2.28,2.28,0,0,0,1.33.35,5.16,5.16,0,0,0,1-.1,3.5,3.5,0,0,0,.85-.24l.26,1.58-.42.16-.58.13a6.34,6.34,0,0,1-.69.1,5.85,5.85,0,0,1-.73,0,4.42,4.42,0,0,1-1.61-.27,3.38,3.38,0,0,1-1.13-.75,3,3,0,0,1-.66-1.13A4.25,4.25,0,0,1,176.86,37.24Zm4.56-.74a1.85,1.85,0,0,0-.08-.48,1.2,1.2,0,0,0-.22-.42,1.26,1.26,0,0,0-.38-.3,1.2,1.2,0,0,0-.57-.12,1.36,1.36,0,0,0-.56.11,1.19,1.19,0,0,0-.39.3A1.44,1.44,0,0,0,179,36a2.07,2.07,0,0,0-.12.49Zm-9-4.45,1.94-.31v2h2.33v1.62h-2.33v2.41a2,2,0,0,0,.21,1,1,1,0,0,0,.87.36,3.74,3.74,0,0,0,.65-.06,3.27,3.27,0,0,0,.6-.16l.28,1.51a5.24,5.24,0,0,1-.79.25,4.45,4.45,0,0,1-1,.1,3.58,3.58,0,0,1-1.32-.21,2,2,0,0,1-.83-.6,2.23,2.23,0,0,1-.44-.93,5.7,5.7,0,0,1-.12-1.21Zm-3.51,7.17a2,2,0,0,0,.76-.1.41.41,0,0,0,.22-.4.51.51,0,0,0-.29-.42,5.45,5.45,0,0,0-.87-.39c-.31-.12-.58-.23-.83-.35a2.51,2.51,0,0,1-.63-.44,1.73,1.73,0,0,1-.41-.61,2.3,2.3,0,0,1-.14-.84,1.82,1.82,0,0,1,.72-1.53,3.14,3.14,0,0,1,2-.56,6.78,6.78,0,0,1,1.2.11,5.07,5.07,0,0,1,.91.24l-.34,1.51-.74-.21a4,4,0,0,0-.89-.09c-.61,0-.91.17-.91.51a.46.46,0,0,0,0,.21.4.4,0,0,0,.15.18l.32.18c.14.07.31.14.52.22a7.75,7.75,0,0,1,1.05.46,2.59,2.59,0,0,1,.66.5,1.6,1.6,0,0,1,.34.59,2.5,2.5,0,0,1,.1.76,1.76,1.76,0,0,1-.76,1.53,3.79,3.79,0,0,1-2.16.52,6.18,6.18,0,0,1-2.36-.42l.32-1.57a6,6,0,0,0,1,.3A4.57,4.57,0,0,0,168.87,39.22Zm-4.6,5.46V40.31c.41-.92.8-1.86,1.16-2.83q.63-1.74,1.23-3.72h-2c-.09.34-.19.71-.3,1.1s-.22.8-.34,1.2-.24.8-.36,1.18-.24.73-.35,1l-.39-1c-.13-.38-.27-.77-.4-1.18s-.25-.8-.37-1.2-.22-.76-.31-1.1h-2.06A37.67,37.67,0,0,0,161,37.41c.45,1.08.86,2,1.3,2.91v4.36h2Zm-7.72-5.61a3.32,3.32,0,0,0,.71-.07,1.35,1.35,0,0,0,.45-.2.66.66,0,0,0,.24-.29,1.16,1.16,0,0,0,.06-.38.89.89,0,0,0-.41-.74,6.46,6.46,0,0,0-1.44-.63,8.15,8.15,0,0,1-.88-.36,3,3,0,0,1-.8-.51,2.48,2.48,0,0,1-.57-.74,2.31,2.31,0,0,1-.22-1.06,2.6,2.6,0,0,1,.23-1.13,2.41,2.41,0,0,1,.67-.85,2.78,2.78,0,0,1,1-.54,4.56,4.56,0,0,1,1.38-.19,5.7,5.7,0,0,1,1.58.19,6.18,6.18,0,0,1,1.09.43l-.58,1.61a6,6,0,0,0-.85-.35,3.59,3.59,0,0,0-1.11-.15,2.09,2.09,0,0,0-1,.2.77.77,0,0,0-.2,1,1.21,1.21,0,0,0,.33.3,2.12,2.12,0,0,0,.5.25c.18.08.39.15.62.23.46.17.87.35,1.22.52a3,3,0,0,1,.87.59,2.07,2.07,0,0,1,.51.79,3.09,3.09,0,0,1,.17,1.11,2.34,2.34,0,0,1-.88,2,4.29,4.29,0,0,1-2.68.7,7.08,7.08,0,0,1-1.08-.07,7.37,7.37,0,0,1-.85-.18,4.72,4.72,0,0,1-.64-.22,4.78,4.78,0,0,1-.45-.22l.57-1.62a5,5,0,0,0,2.45.58Z"/><path id="systematik" class="cls-3" d="M177.39,44.68H166.21V42.74h11.18Zm26.24-1.94H192.45v1.94h11.18Zm-13.12,0H179.33v1.94h11.18Z"/></g><g id="tablet"><rect class="cls-7" x="430" y="75" width="165" height="240" rx="10" ry="10"/><rect class="cls-2" x="445" y="90" width="135" height="210"/><rect class="cls-3" x="445" y="130" width="135" height="170"/><rect class="cls-2" x="452.5" y="137.5" width="120" height="80"/><rect class="cls-2" x="452.5" y="225" width="120" height="75"/><rect class="cls-4" x="500" y="187.5" width="72.5" height="30"/><rect class="cls-5" x="452.5" y="137.5" width="47.5" height="80"/><rect class="cls-4" x="452.5" y="225" width="47.5" height="75"/><rect class="cls-5" x="445" y="285" width="135" height="15"/><rect id="bg-2" data-name="bg" class="cls-6" x="452.5" y="90" width="93.33" height="40"/><path id="lines-2" data-name="lines" d="M528.37,108.17l.66-.72.67-.75.6-.71c.19-.22.36-.41.49-.58h2.59c-.52.6-1,1.16-1.51,1.7s-1,1.1-1.62,1.67a9.14,9.14,0,0,1,.91.94c.31.37.61.74.9,1.14s.56.77.81,1.16.44.75.61,1.07H531l-.53-.84c-.2-.31-.41-.61-.64-.92s-.46-.6-.7-.89a6,6,0,0,0-.74-.71v3.36H526.2v-11l2.17-.35Zm-3,9.48h0V105.41h-2.18v12.24Zm-2-13.51a1.4,1.4,0,0,0,1.83,0,1.37,1.37,0,0,0,0-1.89,1.4,1.4,0,0,0-1.83,0,1.37,1.37,0,0,0,0,1.89Zm-5.84-.64,2.17-.35v2.26h2.61v1.81h-2.61v2.7a2.16,2.16,0,0,0,.24,1.1,1,1,0,0,0,1,.41,3.68,3.68,0,0,0,.73-.07,3.28,3.28,0,0,0,.67-.18l.31,1.69a5.93,5.93,0,0,1-.87.28,5.08,5.08,0,0,1-1.19.12A3.9,3.9,0,0,1,519,113a2.44,2.44,0,0,1-.94-.67,2.68,2.68,0,0,1-.49-1,6.34,6.34,0,0,1-.13-1.36Zm-4.08,1.71a4.93,4.93,0,0,1,1.61.22,2.37,2.37,0,0,1,1,.63,2.29,2.29,0,0,1,.55,1,5.2,5.2,0,0,1,.16,1.3v4.52c-.32.07-.75.15-1.3.24a11.76,11.76,0,0,1-2,.14,6.31,6.31,0,0,1-1.35-.13,3,3,0,0,1-1-.43,2,2,0,0,1-.67-.78,2.64,2.64,0,0,1-.24-1.18,2.24,2.24,0,0,1,.27-1.14,2.1,2.1,0,0,1,.73-.75,3.51,3.51,0,0,1,1-.4,6.06,6.06,0,0,1,1.21-.12,5.72,5.72,0,0,1,.76,0,3,3,0,0,1,.53.09v-.2a1.18,1.18,0,0,0-.34-.89,1.59,1.59,0,0,0-1.17-.34,7.88,7.88,0,0,0-1.09.08,4.21,4.21,0,0,0-.93.23l-.28-1.76.47-.12.62-.12.71-.08A6.28,6.28,0,0,1,513.39,105.21Zm.18,6.36h.61l.47,0v-1.65l-.4-.06-.48,0a5.17,5.17,0,0,0-.57,0,2.09,2.09,0,0,0-.48.14.87.87,0,0,0-.32.28.76.76,0,0,0-.12.44.75.75,0,0,0,.35.71A1.91,1.91,0,0,0,513.57,111.57ZM503.14,109a3,3,0,0,0-.27-1.49,1,1,0,0,0-.92-.44l-.43,0-.42.06v5.92h-2.17v-7.41l.65-.16.78-.14c.28,0,.57-.08.86-.11l.86,0a3.68,3.68,0,0,1,1.35.21,3.13,3.13,0,0,1,.85.5,4.18,4.18,0,0,1,2.19-.71,3.81,3.81,0,0,1,1.51.25,2.33,2.33,0,0,1,.95.73,2.8,2.8,0,0,1,.48,1.11,6.9,6.9,0,0,1,.13,1.43v4.33h-2.18V109a3,3,0,0,0-.27-1.49,1,1,0,0,0-.92-.44,1.9,1.9,0,0,0-.49.09,1.94,1.94,0,0,0-.52.22,3.19,3.19,0,0,1,.13.71c0,.25,0,.51,0,.79v4.19h-2.18Zm-12.16.29a4.69,4.69,0,0,1,.32-1.79,3.81,3.81,0,0,1,.82-1.27,3.57,3.57,0,0,1,1.18-.78,3.77,3.77,0,0,1,1.36-.26,3.4,3.4,0,0,1,2.59,1,4.14,4.14,0,0,1,.95,2.94c0,.13,0,.27,0,.42s0,.28,0,.4h-4.93a1.43,1.43,0,0,0,.63,1.06,2.45,2.45,0,0,0,1.48.4,6.56,6.56,0,0,0,1.18-.11,4.11,4.11,0,0,0,.94-.27l.29,1.76a2.76,2.76,0,0,1-.46.18,5.65,5.65,0,0,1-.65.15c-.24,0-.5.08-.77.11a7.52,7.52,0,0,1-.82,0,4.91,4.91,0,0,1-1.8-.31,3.44,3.44,0,0,1-1.27-.84,3.26,3.26,0,0,1-.74-1.26A4.76,4.76,0,0,1,491,109.31Zm5.11-.83a2.34,2.34,0,0,0-.09-.54,1.33,1.33,0,0,0-.25-.47,1.26,1.26,0,0,0-.42-.33,1.35,1.35,0,0,0-.64-.14,1.54,1.54,0,0,0-.63.13,1.18,1.18,0,0,0-.43.33,1.29,1.29,0,0,0-.27.47,2.61,2.61,0,0,0-.14.55Zm-10.13-5,2.18-.35v2.26h2.61v1.81h-2.61v2.7a2.16,2.16,0,0,0,.24,1.1,1,1,0,0,0,1,.41,3.65,3.65,0,0,0,.72-.07,3.21,3.21,0,0,0,.68-.18l.31,1.69a6.5,6.5,0,0,1-.88.28,4.93,4.93,0,0,1-1.18.12,4,4,0,0,1-1.48-.24,2.4,2.4,0,0,1-.93-.67,2.55,2.55,0,0,1-.49-1A6.32,6.32,0,0,1,486,110Zm-3.92,8a2.09,2.09,0,0,0,.84-.12.44.44,0,0,0,.25-.45.57.57,0,0,0-.32-.46,5.63,5.63,0,0,0-1-.44c-.34-.13-.65-.26-.93-.4a2.58,2.58,0,0,1-.7-.49,1.9,1.9,0,0,1-.46-.68,2.66,2.66,0,0,1-.16-.95,2,2,0,0,1,.81-1.7,3.47,3.47,0,0,1,2.2-.63,7.26,7.26,0,0,1,1.34.12,8.66,8.66,0,0,1,1,.27l-.38,1.7a8.2,8.2,0,0,0-.83-.24,5.05,5.05,0,0,0-1-.1q-1,0-1,.57a.53.53,0,0,0,0,.23.48.48,0,0,0,.18.2,3.17,3.17,0,0,0,.36.21l.57.24a9.26,9.26,0,0,1,1.18.52,2.65,2.65,0,0,1,.74.56,1.7,1.7,0,0,1,.38.66,3,3,0,0,1,.11.85,1.93,1.93,0,0,1-.85,1.71,4.26,4.26,0,0,1-2.42.59,6.75,6.75,0,0,1-1.7-.18,7,7,0,0,1-.94-.29l.36-1.77a7.51,7.51,0,0,0,1.14.35A5.79,5.79,0,0,0,482,111.53Zm-5.16,6.12v-4.9c.46-1,.9-2.09,1.3-3.18.48-1.29.93-2.68,1.37-4.16H477.3c-.09.38-.2.79-.33,1.24s-.24.89-.38,1.34-.26.89-.4,1.32-.27.82-.4,1.17c-.13-.35-.28-.74-.43-1.17s-.3-.87-.45-1.32-.28-.9-.41-1.34-.25-.86-.35-1.24h-2.3a37.87,37.87,0,0,0,1.4,4.08c.49,1.22,1,2.29,1.45,3.27v4.89h2.18Zm-8.64-6.29a3,3,0,0,0,.8-.09,1.54,1.54,0,0,0,.5-.21.79.79,0,0,0,.26-.33,1.18,1.18,0,0,0,.07-.43,1,1,0,0,0-.46-.82,6.51,6.51,0,0,0-1.61-.71c-.33-.12-.66-.25-1-.4a3.56,3.56,0,0,1-.89-.57,2.75,2.75,0,0,1-.64-.83,2.55,2.55,0,0,1-.25-1.19,3,3,0,0,1,.26-1.26,2.61,2.61,0,0,1,.75-1,3.46,3.46,0,0,1,1.16-.61,5.33,5.33,0,0,1,1.55-.21,6.2,6.2,0,0,1,1.77.22,7,7,0,0,1,1.22.48l-.65,1.8a5.89,5.89,0,0,0-.95-.39,4.08,4.08,0,0,0-1.24-.17,2.3,2.3,0,0,0-1.18.23.76.76,0,0,0-.36.69.79.79,0,0,0,.14.47,1.11,1.11,0,0,0,.37.34,2.57,2.57,0,0,0,.55.28l.7.26a14.65,14.65,0,0,1,1.37.57,3.54,3.54,0,0,1,1,.67,2.41,2.41,0,0,1,.58.89,3.72,3.72,0,0,1,.19,1.24,2.66,2.66,0,0,1-1,2.2,4.79,4.79,0,0,1-3,.78,8.77,8.77,0,0,1-1.21-.08,8.91,8.91,0,0,1-1-.2,5.23,5.23,0,0,1-.71-.25c-.2-.09-.37-.17-.51-.25l.65-1.81a5.32,5.32,0,0,0,1.11.45A5.85,5.85,0,0,0,468.24,111.36Z"/><path id="systematik-2" data-name="systematik" class="cls-3" d="M491.58,117.65H479.05v-2.18h12.53ZM521,115.47H508.45v2.18H521Zm-14.7,0H493.75v2.18h12.52Z"/></g><g id="mobile"><rect class="cls-7" y="130" width="105" height="185" rx="10" ry="10"/><rect class="cls-2" x="10" y="140" width="85" height="160"/><rect class="cls-3" x="10" y="165" width="85" height="135"/><rect class="cls-2" x="15" y="255" width="75" height="45"/><rect class="cls-2" x="15" y="170" width="75" height="80"/><rect class="cls-4" x="15" y="225" width="75" height="25"/><rect class="cls-5" x="15" y="170" width="75" height="15"/><rect class="cls-5" x="10" y="285" width="85" height="15"/><rect id="bg-3" data-name="bg" class="cls-6" x="23.33" y="140" width="58.33" height="25"/><path id="lines-3" data-name="lines" d="M70.75,151.36l.42-.46.41-.46L72,150l.31-.37h1.61l-.94,1.06c-.31.34-.65.69-1,1.05a6.53,6.53,0,0,1,.57.59c.19.22.38.46.56.7s.35.49.5.74.28.46.39.66H72.38c-.09-.16-.21-.33-.33-.52s-.26-.39-.4-.58a5.89,5.89,0,0,0-.44-.55,3.22,3.22,0,0,0-.46-.45v2.1H69.39v-6.86l1.36-.22Zm-1.9,5.92h0v-7.65H67.49v7.65Zm-1.26-8.44a.88.88,0,0,0,1.14,0,.76.76,0,0,0,.24-.59.75.75,0,0,0-.24-.59.85.85,0,0,0-1.14,0,.75.75,0,0,0-.24.59A.76.76,0,0,0,67.59,148.84Zm-3.65-.4,1.36-.22v1.41h1.63v1.13H65.3v1.69a1.36,1.36,0,0,0,.15.69.64.64,0,0,0,.6.25,2.45,2.45,0,0,0,.46,0,2.58,2.58,0,0,0,.42-.11l.19,1.06a5.16,5.16,0,0,1-.55.17,3.06,3.06,0,0,1-.73.07,2.48,2.48,0,0,1-.93-.15,1.47,1.47,0,0,1-.58-.42,1.51,1.51,0,0,1-.31-.65,4.46,4.46,0,0,1-.08-.85Zm-2.55,1.07a3.26,3.26,0,0,1,1,.13A1.58,1.58,0,0,1,63,150a1.54,1.54,0,0,1,.34.63,2.9,2.9,0,0,1,.1.81v2.83l-.81.15a9,9,0,0,1-1.26.08,3.63,3.63,0,0,1-.84-.08,1.7,1.7,0,0,1-.66-.27,1.25,1.25,0,0,1-.42-.49,1.78,1.78,0,0,1-.14-.74,1.33,1.33,0,0,1,.17-.71,1.24,1.24,0,0,1,.45-.46,1.88,1.88,0,0,1,.65-.25,3.67,3.67,0,0,1,.75-.08l.47,0,.34.06v-.13a.74.74,0,0,0-.21-.55,1,1,0,0,0-.73-.21,4,4,0,0,0-.69.05,2.74,2.74,0,0,0-.58.14l-.18-1.1.3-.07.39-.08.44-.05A3.7,3.7,0,0,1,61.39,149.51Zm.11,4h.38l.3,0v-1a1.18,1.18,0,0,0-.25,0l-.3,0-.36,0a1.32,1.32,0,0,0-.3.09.55.55,0,0,0-.2.17.51.51,0,0,0-.07.28.47.47,0,0,0,.21.44A1.23,1.23,0,0,0,61.5,153.48ZM55,151.89a1.89,1.89,0,0,0-.17-.93.63.63,0,0,0-.58-.28l-.27,0-.26,0v3.7H52.35V149.8l.41-.1.49-.09a4.52,4.52,0,0,1,.53-.06,4.89,4.89,0,0,1,.54,0,2.16,2.16,0,0,1,.84.14,1.74,1.74,0,0,1,.54.31,2.33,2.33,0,0,1,.67-.33,2.29,2.29,0,0,1,.7-.12,2.52,2.52,0,0,1,.94.16,1.43,1.43,0,0,1,.59.46,1.55,1.55,0,0,1,.3.69,4.09,4.09,0,0,1,.08.89v2.71H57.62v-2.54a1.78,1.78,0,0,0-.17-.93.6.6,0,0,0-.57-.28,1.1,1.1,0,0,0-.31.06,1.06,1.06,0,0,0-.32.13,2.11,2.11,0,0,1,.08.45c0,.15,0,.32,0,.49v2.62H55Zm-7.6.18a3,3,0,0,1,.19-1.12,2.36,2.36,0,0,1,.52-.8,2.21,2.21,0,0,1,.73-.48,2.3,2.3,0,0,1,.86-.16,2.1,2.1,0,0,1,1.61.62,2.56,2.56,0,0,1,.59,1.84,2.44,2.44,0,0,1,0,.26c0,.09,0,.18,0,.25H48.78a.92.92,0,0,0,.39.67,1.65,1.65,0,0,0,.93.24,3.64,3.64,0,0,0,.74-.07,2.89,2.89,0,0,0,.59-.16l.18,1.1a1.79,1.79,0,0,1-.29.11,2.26,2.26,0,0,1-.41.09l-.48.07a4.36,4.36,0,0,1-.51,0,3,3,0,0,1-1.12-.19,2.16,2.16,0,0,1-.8-.53,2,2,0,0,1-.46-.79A3.1,3.1,0,0,1,47.39,152.07Zm3.19-.52a1.86,1.86,0,0,0-.06-.34,1,1,0,0,0-.15-.29.71.71,0,0,0-.27-.21,1,1,0,0,0-.4-.08.83.83,0,0,0-.83.58,1.89,1.89,0,0,0-.09.34Zm-6.33-3.11,1.36-.22v1.41h1.63v1.13H45.61v1.69a1.36,1.36,0,0,0,.15.69.64.64,0,0,0,.6.25,2.45,2.45,0,0,0,.46,0,2.58,2.58,0,0,0,.42-.11l.19,1.06a5.16,5.16,0,0,1-.55.17,3.06,3.06,0,0,1-.73.07,2.48,2.48,0,0,1-.93-.15,1.47,1.47,0,0,1-.58-.42,1.51,1.51,0,0,1-.31-.65,4.46,4.46,0,0,1-.08-.85Zm-2.46,5a1.3,1.3,0,0,0,.53-.08.27.27,0,0,0,.16-.28.37.37,0,0,0-.2-.29,5.46,5.46,0,0,0-.61-.28,4.62,4.62,0,0,1-.58-.24,1.7,1.7,0,0,1-.45-.31,1.34,1.34,0,0,1-.28-.42,1.52,1.52,0,0,1-.1-.59,1.3,1.3,0,0,1,.5-1.07,2.22,2.22,0,0,1,1.38-.39,4.61,4.61,0,0,1,.84.07,3.81,3.81,0,0,1,.64.17l-.24,1.06-.51-.15a3.06,3.06,0,0,0-.63-.06c-.43,0-.64.12-.64.36a.32.32,0,0,0,0,.14.27.27,0,0,0,.11.13,1.08,1.08,0,0,0,.22.12l.36.16a4.93,4.93,0,0,1,.74.32,1.78,1.78,0,0,1,.46.35,1.14,1.14,0,0,1,.24.41,2.13,2.13,0,0,1,.07.53,1.22,1.22,0,0,1-.54,1.08,2.67,2.67,0,0,1-1.51.36,4.48,4.48,0,0,1-1.06-.11,4,4,0,0,1-.59-.18l.23-1.11a3.64,3.64,0,0,0,.71.22A3.69,3.69,0,0,0,41.79,153.46Zm-3.22,3.82v-3.06c.29-.65.56-1.31.81-2s.59-1.67.86-2.6h-1.4c-.07.24-.13.5-.21.77l-.24.84c-.08.29-.16.56-.25.83s-.17.51-.25.73l-.27-.73c-.09-.27-.19-.54-.28-.83s-.18-.56-.26-.84-.15-.53-.21-.77H35.42a25.87,25.87,0,0,0,.88,2.55c.31.76.6,1.43.91,2v3.06h1.36Zm-5.4-3.93a2.27,2.27,0,0,0,.5,0,1,1,0,0,0,.31-.14.48.48,0,0,0,.17-.21.68.68,0,0,0,0-.26.6.6,0,0,0-.29-.52,4.52,4.52,0,0,0-1-.44,4.73,4.73,0,0,1-.62-.25,2.12,2.12,0,0,1-.56-.35,1.85,1.85,0,0,1-.4-.52,1.73,1.73,0,0,1-.16-.75,1.86,1.86,0,0,1,.17-.79,1.79,1.79,0,0,1,.46-.6,2.09,2.09,0,0,1,.73-.37,3.24,3.24,0,0,1,1-.14,3.92,3.92,0,0,1,1.1.14,3.87,3.87,0,0,1,.77.3L35,149.52a4,4,0,0,0-.59-.24,2.51,2.51,0,0,0-.78-.1,1.36,1.36,0,0,0-.73.14.48.48,0,0,0-.23.43.46.46,0,0,0,.09.29.81.81,0,0,0,.23.22,2.15,2.15,0,0,0,.34.17l.44.16c.33.12.61.24.86.36a2.28,2.28,0,0,1,.6.42,1.54,1.54,0,0,1,.36.55,2.24,2.24,0,0,1,.12.78,1.64,1.64,0,0,1-.62,1.37,3,3,0,0,1-1.87.49,5.81,5.81,0,0,1-.76-.05,4.08,4.08,0,0,1-.59-.12,2.56,2.56,0,0,1-.45-.16,2.44,2.44,0,0,1-.32-.15l.41-1.13a3.55,3.55,0,0,0,.69.27A3.37,3.37,0,0,0,33.17,153.35Z"/><path id="systematik-3" data-name="systematik" class="cls-3" d="M47.76,157.28H39.93v-1.36h7.83Zm18.37-1.36H58.3v1.36h7.83Zm-9.19,0H49.12v1.36h7.82Z"/></g></g></g></g></svg>